<svg width="7970" height="223" viewBox="0 0 7970 223" fill="none" xmlns="http://www.w3.org/2000/svg">
  <!-- Row 1: Slots 1-10, each taking 797px width -->
  
  <!-- Slot 1 at x=0 -->
  <g transform="translate(0, 0)">
    <path
      d="M0.948456 39.0357C0.187968 40.3438 -0.128226 41.863 0.0472373 43.3658L8.243 113.562C8.63008 116.878 11.3041 119.458 14.6311 119.728L166.979 132.058L169.522 132.216C174.186 132.506 177.82 128.232 176.782 123.676L170.275 95.0908L170.256 95.0117L170.244 94.9316L162.269 45.1328C161.777 42.0591 159.314 39.6798 156.225 39.2937L103.307 32.6795C102.624 32.5941 101.957 32.4085 101.328 32.1285L30.5172 0.606066C27.2516 -0.847621 23.4154 0.392546 21.6188 3.48271L0.948456 39.0357Z"
      fill="white"
    />
  </g>

  <!-- Slot 2 at x=797 -->
  <g transform="translate(797, 0)">
    <path
      d="M175.17 94.0664L182.897 128.013C183.586 131.041 186.188 133.253 189.287 133.445L339.35 142.785C344.296 143.093 347.987 138.304 346.431 133.6L338.403 109.336L338.379 109.265L338.36 109.191L327.444 68.045C326.779 65.5379 324.782 63.6042 322.255 63.0199L294.277 56.5507L175.861 41.7486C171.232 41.17 167.343 45.1954 168.081 49.8015L175.17 94.0664Z"
      fill="white"
    />
  </g>

  <!-- Slot 3 at x=1594 -->
  <g transform="translate(1594, 0)">
    <path
      d="M343.173 107.836L353.572 139.268C354.47 141.982 356.929 143.878 359.783 144.056L407.089 147L504.123 148.376C508.847 148.443 512.28 143.906 510.931 139.378L493.999 82.5481C493.131 79.6355 490.483 77.6156 487.445 77.5486L374.998 75.0667C374.518 75.0561 374.042 74.9963 373.575 74.8883L343.198 67.8629C338.06 66.6745 333.502 71.38 334.855 76.4778L343.173 107.836Z"
      fill="white"
    />
  </g>

  <!-- Slot 4 at x=2391 -->
  <g transform="translate(2391, 0)">
    <path
      d="M517.422 143.658C518.296 146.59 520.972 148.615 524.031 148.659L637.919 150.274C642.752 150.343 646.198 145.609 644.648 141.031L625.755 85.2131C624.811 82.4242 622.222 80.5241 619.279 80.4591L507.4 77.9894C502.653 77.8846 499.182 82.4359 500.537 86.9864L517.422 143.658Z"
      fill="white"
    />
  </g>

  <!-- Slot 5 at x=3188 -->
  <g transform="translate(3188, 0)">
    <path
      d="M651.543 145.805C652.493 148.613 655.11 150.518 658.074 150.56L773.705 152.201C778.585 152.27 782.036 147.45 780.399 142.853L760.895 88.0939C759.921 85.3583 757.359 83.5084 754.455 83.4443L639.49 80.906C634.634 80.7988 631.147 85.5482 632.705 90.1486L651.543 145.805Z"
      fill="white"
    />
  </g>

  <!-- Slot 6 at x=3985 -->
  <g transform="translate(3985, 0)">
    <path
      d="M11.1734 138.663C11.2421 139.253 11.2357 139.848 11.1543 140.436L0.879927 214.59C0.296924 218.798 3.56573 222.551 7.81369 222.551H166.395C170.012 222.551 173.034 219.795 173.365 216.192L175.283 195.36L179.13 144.936C179.427 141.043 176.481 137.659 172.584 137.417L166.622 137.046L166.598 137.045L166.575 137.043L18.0074 125.019C13.6058 124.662 9.97801 128.421 10.4899 132.807L11.1734 138.663Z"
      fill="white"
    />
  </g>

  <!-- Slot 7 at x=4782 -->
  <g transform="translate(4782, 0)">
    <path
      d="M180.269 195.741L180.265 195.78L178.504 214.909C178.126 219.011 181.355 222.551 185.475 222.551H341.341C345.124 222.551 348.222 219.546 348.338 215.766L350.199 155.263C350.315 151.484 347.41 148.296 343.637 148.061L191.55 138.597C187.73 138.359 184.427 141.234 184.136 145.051L180.269 195.741Z"
      fill="white"
    />
  </g>

  <!-- Slot 8 at x=5579 -->
  <g transform="translate(5579, 0)">
    <path
      d="M353.353 215.336C353.232 219.284 356.4 222.551 360.35 222.551H504.652C508.399 222.551 511.481 219.601 511.646 215.858L514.071 160.727C514.245 156.783 511.125 153.476 507.177 153.42L406.964 152L406.904 151.999L406.844 151.995L362.609 149.242C358.665 148.996 355.299 152.063 355.178 156.013L353.353 215.336Z"
      fill="white"
    />
  </g>

  <!-- Slot 9 at x=6376 -->
  <g transform="translate(6376, 0)">
    <path
      d="M516.678 215.243C516.503 219.226 519.685 222.551 523.672 222.551H647.759C651.898 222.551 655.134 218.979 654.725 214.86L649.447 161.649C649.095 158.106 646.14 155.391 642.58 155.341L526.184 153.69C522.4 153.636 519.258 156.601 519.092 160.382L516.678 215.243Z"
      fill="white"
    />
  </g>

  <!-- Slot 10 at x=7173 -->
  <g transform="translate(7173, 0)">
    <path
      d="M659.885 216.242C660.241 219.823 663.253 222.551 666.851 222.551H789.327C793.715 222.551 797.021 218.56 796.205 214.248L786.496 162.984C785.877 159.716 783.043 157.334 779.717 157.287L661.698 155.612C657.52 155.553 654.22 159.144 654.633 163.303L659.885 216.242Z"
      fill="white"
    />
  </g>
</svg> 